# xmcd CD database file
#
# Track frame offsets:
#	150
#	14356
#	28582
#	57125
#	72688
#	82564
#	103582
#	120139
#	134104
#	151183
#	168771
#	183361
#	211072
#	233008
#	250431
#
# Disc length: 3541 seconds
#
# Revision: 1
# Processed by: cddbd v1.5.2PL0 Copyright (c) Steve Scherf et al.
# Submitted via: CDex 1.40Release
#
DISCID=b80dd30f
DTITLE=B.J. Hegen Bluesband - Blues, originals and classics
DYEAR=2007
DGENRE=Blues
TTITLE0=Hear me howlin'
TTITLE1=Dealin' with the devil
TTITLE2=Banty rooster blues
TTITLE3=Empty rooms blues
TTITLE4=She's an' ol' lady
TTITLE5=44 Blues
TTITLE6=Cold rainy day
TTITLE7=See me comin' blues
TTITLE8=3 o'clock in the morning
TTITLE9=Steady rollin' man
TTITLE10=When I came in blues
TTITLE11=High water risin' blues
TTITLE12=Ashes in my whiskey
TTITLE13=Don't sick your dog on me
TTITLE14=Jumpin' an' shoutin' boogie
EXTD=YEAR: 2007 ID3G: 0
EXTT0=
EXTT1=
EXTT2=
EXTT3=
EXTT4=
EXTT5=
EXTT6=
EXTT7=
EXTT8=
EXTT9=
EXTT10=
EXTT11=
EXTT12=
EXTT13=
EXTT14=
PLAYORDER=
